<mxfile host="app.diagrams.net" modified="2020-11-30T15:05:23.765Z" agent="5.0 (Windows NT 10.0; Win64; x64) AppleWebKit/537.36 (KHTML, like Gecko) Chrome/87.0.4280.66 Safari/537.36" etag="osJZ6b1GqEJ7KscTwx2T" version="13.8.2" type="github">
  <diagram id="7Rsvs0vOTl0MpOckWxuK" name="Page-1">
    <mxGraphModel dx="1422" dy="1862" grid="1" gridSize="10" guides="1" tooltips="1" connect="1" arrows="1" fold="1" page="1" pageScale="1" pageWidth="850" pageHeight="1100" math="0" shadow="0">
      <root>
        <mxCell id="0" />
        <mxCell id="1" parent="0" />
        <mxCell id="WyV3JQxwRowbb4DdgCYI-11" style="edgeStyle=orthogonalEdgeStyle;rounded=0;orthogonalLoop=1;jettySize=auto;html=1;exitX=0.5;exitY=1;exitDx=0;exitDy=0;entryX=0;entryY=0.5;entryDx=0;entryDy=0;" parent="1" source="sPtuqEH-0CU76L_9MhWu-2" target="sPtuqEH-0CU76L_9MhWu-28" edge="1">
          <mxGeometry relative="1" as="geometry" />
        </mxCell>
        <mxCell id="sPtuqEH-0CU76L_9MhWu-2" value="Direct method (model-based)" style="rounded=0;whiteSpace=wrap;html=1;fillColor=#dae8fc;strokeColor=#6c8ebf;" parent="1" vertex="1">
          <mxGeometry x="195" y="-580" width="100" height="60" as="geometry" />
        </mxCell>
        <mxCell id="PQNr4_TIdTEO0NgWRt0n-21" style="edgeStyle=orthogonalEdgeStyle;rounded=0;orthogonalLoop=1;jettySize=auto;html=1;exitX=0.5;exitY=1;exitDx=0;exitDy=0;entryX=0.5;entryY=0;entryDx=0;entryDy=0;endArrow=classic;endFill=1;" parent="1" source="sPtuqEH-0CU76L_9MhWu-11" target="sPtuqEH-0CU76L_9MhWu-28" edge="1">
          <mxGeometry relative="1" as="geometry" />
        </mxCell>
        <mxCell id="sPtuqEH-0CU76L_9MhWu-11" value="Indirect method (differencing)" style="rounded=0;whiteSpace=wrap;html=1;fillColor=#dae8fc;strokeColor=#6c8ebf;" parent="1" vertex="1">
          <mxGeometry x="412.5" y="-580" width="105" height="60" as="geometry" />
        </mxCell>
        <mxCell id="Avo1Zc5-5_4oDPvEt0sl-4" style="edgeStyle=orthogonalEdgeStyle;rounded=0;orthogonalLoop=1;jettySize=auto;html=1;exitX=0;exitY=0.5;exitDx=0;exitDy=0;entryX=1;entryY=0.5;entryDx=0;entryDy=0;" parent="1" source="sPtuqEH-0CU76L_9MhWu-16" target="sPtuqEH-0CU76L_9MhWu-19" edge="1">
          <mxGeometry relative="1" as="geometry" />
        </mxCell>
        <mxCell id="sPtuqEH-0CU76L_9MhWu-16" value="&lt;b&gt;FRA data&lt;br&gt;&lt;/b&gt;&lt;br&gt;2000 2010 2015" style="rounded=1;whiteSpace=wrap;html=1;fillColor=#f5f5f5;strokeColor=#666666;fontColor=#333333;" parent="1" vertex="1">
          <mxGeometry x="612.5" y="-325" width="110" height="60" as="geometry" />
        </mxCell>
        <mxCell id="sPtuqEH-0CU76L_9MhWu-19" value="Annual or 5-year&amp;nbsp;&lt;br&gt;carbon accounting &lt;br&gt;&lt;br&gt;UNFCC and SEEA frameworks" style="rounded=1;whiteSpace=wrap;html=1;fillColor=#d5e8d4;strokeColor=#82b366;" parent="1" vertex="1">
          <mxGeometry x="380" y="-350" width="170" height="110" as="geometry" />
        </mxCell>
        <mxCell id="PQNr4_TIdTEO0NgWRt0n-16" style="edgeStyle=orthogonalEdgeStyle;rounded=0;orthogonalLoop=1;jettySize=auto;html=1;exitX=0;exitY=0.5;exitDx=0;exitDy=0;entryX=0;entryY=0.5;entryDx=0;entryDy=0;endArrow=classic;endFill=1;" parent="1" source="sPtuqEH-0CU76L_9MhWu-26" target="sPtuqEH-0CU76L_9MhWu-2" edge="1">
          <mxGeometry relative="1" as="geometry" />
        </mxCell>
        <mxCell id="Avo1Zc5-5_4oDPvEt0sl-1" style="edgeStyle=orthogonalEdgeStyle;rounded=0;orthogonalLoop=1;jettySize=auto;html=1;exitX=1;exitY=0.5;exitDx=0;exitDy=0;entryX=0;entryY=0.5;entryDx=0;entryDy=0;" parent="1" source="sPtuqEH-0CU76L_9MhWu-26" target="sPtuqEH-0CU76L_9MhWu-49" edge="1">
          <mxGeometry relative="1" as="geometry" />
        </mxCell>
        <mxCell id="Avo1Zc5-5_4oDPvEt0sl-2" style="edgeStyle=orthogonalEdgeStyle;rounded=0;orthogonalLoop=1;jettySize=auto;html=1;exitX=0.5;exitY=1;exitDx=0;exitDy=0;entryX=0;entryY=0.5;entryDx=0;entryDy=0;" parent="1" source="sPtuqEH-0CU76L_9MhWu-26" target="sPtuqEH-0CU76L_9MhWu-43" edge="1">
          <mxGeometry relative="1" as="geometry" />
        </mxCell>
        <mxCell id="sPtuqEH-0CU76L_9MhWu-26" value="&lt;b style=&quot;font-family: &amp;#34;helvetica&amp;#34;&quot;&gt;Plot data&lt;br&gt;&lt;br&gt;multi-date and one-time&lt;br&gt;&lt;/b&gt;" style="rounded=1;whiteSpace=wrap;html=1;fillColor=#f5f5f5;strokeColor=#666666;fontColor=#333333;" parent="1" vertex="1">
          <mxGeometry x="220" y="-925" width="100" height="60" as="geometry" />
        </mxCell>
        <mxCell id="PQNr4_TIdTEO0NgWRt0n-29" style="edgeStyle=orthogonalEdgeStyle;rounded=0;orthogonalLoop=1;jettySize=auto;html=1;exitX=0.5;exitY=1;exitDx=0;exitDy=0;entryX=0.5;entryY=0;entryDx=0;entryDy=0;endArrow=classic;endFill=1;" parent="1" source="sPtuqEH-0CU76L_9MhWu-28" target="sPtuqEH-0CU76L_9MhWu-19" edge="1">
          <mxGeometry relative="1" as="geometry" />
        </mxCell>
        <mxCell id="sPtuqEH-0CU76L_9MhWu-28" value="AGB change with confidence&lt;br&gt;&lt;br&gt;global scale / 3 countries" style="rounded=1;whiteSpace=wrap;html=1;" parent="1" vertex="1">
          <mxGeometry x="402.5" y="-480" width="125" height="70" as="geometry" />
        </mxCell>
        <mxCell id="WyV3JQxwRowbb4DdgCYI-16" style="edgeStyle=orthogonalEdgeStyle;rounded=0;orthogonalLoop=1;jettySize=auto;html=1;exitX=0.5;exitY=1;exitDx=0;exitDy=0;entryX=0.5;entryY=0;entryDx=0;entryDy=0;" parent="1" source="sPtuqEH-0CU76L_9MhWu-43" target="WyV3JQxwRowbb4DdgCYI-14" edge="1">
          <mxGeometry relative="1" as="geometry" />
        </mxCell>
        <mxCell id="sPtuqEH-0CU76L_9MhWu-43" value="Global AGB map validation" style="rounded=0;whiteSpace=wrap;html=1;fillColor=#dae8fc;strokeColor=#6c8ebf;" parent="1" vertex="1">
          <mxGeometry x="400" y="-810" width="130" height="55" as="geometry" />
        </mxCell>
        <mxCell id="Avo1Zc5-5_4oDPvEt0sl-3" style="edgeStyle=orthogonalEdgeStyle;rounded=0;orthogonalLoop=1;jettySize=auto;html=1;exitX=0;exitY=0.5;exitDx=0;exitDy=0;entryX=1;entryY=0.5;entryDx=0;entryDy=0;" parent="1" source="sPtuqEH-0CU76L_9MhWu-47" target="sPtuqEH-0CU76L_9MhWu-49" edge="1">
          <mxGeometry relative="1" as="geometry" />
        </mxCell>
        <mxCell id="sPtuqEH-0CU76L_9MhWu-47" value="&lt;b&gt;AGB maps time series&lt;br&gt;&lt;br&gt;&amp;nbsp;local scale&lt;/b&gt;&lt;b&gt;&lt;br&gt;&lt;/b&gt;" style="rounded=1;whiteSpace=wrap;html=1;fillColor=#f5f5f5;strokeColor=#666666;fontColor=#333333;" parent="1" vertex="1">
          <mxGeometry x="600" y="-925" width="140" height="60" as="geometry" />
        </mxCell>
        <mxCell id="WyV3JQxwRowbb4DdgCYI-6" style="edgeStyle=orthogonalEdgeStyle;rounded=0;orthogonalLoop=1;jettySize=auto;html=1;exitX=0;exitY=0.5;exitDx=0;exitDy=0;entryX=1;entryY=0.5;entryDx=0;entryDy=0;" parent="1" source="sPtuqEH-0CU76L_9MhWu-48" target="sPtuqEH-0CU76L_9MhWu-43" edge="1">
          <mxGeometry relative="1" as="geometry" />
        </mxCell>
        <mxCell id="sPtuqEH-0CU76L_9MhWu-48" value="&lt;b&gt;AGB maps &lt;br&gt;time series&amp;nbsp;&lt;br&gt;&lt;br&gt;global scale&lt;br&gt;&lt;/b&gt;" style="rounded=1;whiteSpace=wrap;html=1;" parent="1" vertex="1">
          <mxGeometry x="617.5" y="-812.5" width="105" height="60" as="geometry" />
        </mxCell>
        <mxCell id="PQNr4_TIdTEO0NgWRt0n-11" value="" style="edgeStyle=orthogonalEdgeStyle;rounded=0;orthogonalLoop=1;jettySize=auto;html=1;endArrow=classic;endFill=1;" parent="1" source="sPtuqEH-0CU76L_9MhWu-49" target="sPtuqEH-0CU76L_9MhWu-43" edge="1">
          <mxGeometry relative="1" as="geometry" />
        </mxCell>
        <mxCell id="gxPmMTx2_d7EBtKhnhhi-1" style="edgeStyle=orthogonalEdgeStyle;rounded=0;orthogonalLoop=1;jettySize=auto;html=1;exitX=0.5;exitY=0;exitDx=0;exitDy=0;entryX=0;entryY=0.5;entryDx=0;entryDy=0;" parent="1" source="sPtuqEH-0CU76L_9MhWu-49" target="sPtuqEH-0CU76L_9MhWu-2" edge="1">
          <mxGeometry relative="1" as="geometry">
            <Array as="points">
              <mxPoint x="465" y="-990" />
              <mxPoint x="175" y="-990" />
              <mxPoint x="175" y="-550" />
            </Array>
          </mxGeometry>
        </mxCell>
        <mxCell id="sPtuqEH-0CU76L_9MhWu-49" value="AGB time series mapping&lt;br&gt;&lt;br&gt;local scale (reference data)" style="rounded=0;whiteSpace=wrap;html=1;fillColor=#dae8fc;strokeColor=#6c8ebf;" parent="1" vertex="1">
          <mxGeometry x="390" y="-930" width="150" height="70" as="geometry" />
        </mxCell>
        <mxCell id="PQNr4_TIdTEO0NgWRt0n-17" value="re-measured?" style="text;html=1;strokeColor=none;fillColor=none;align=center;verticalAlign=middle;whiteSpace=wrap;rounded=0;rotation=-90;" parent="1" vertex="1">
          <mxGeometry x="110" y="-760" width="90" height="20" as="geometry" />
        </mxCell>
        <mxCell id="PQNr4_TIdTEO0NgWRt0n-30" value="stock difference" style="text;html=1;strokeColor=none;fillColor=none;align=center;verticalAlign=middle;whiteSpace=wrap;rounded=0;" parent="1" vertex="1">
          <mxGeometry x="470" y="-390" width="90" height="20" as="geometry" />
        </mxCell>
        <mxCell id="WyV3JQxwRowbb4DdgCYI-4" style="edgeStyle=orthogonalEdgeStyle;rounded=0;orthogonalLoop=1;jettySize=auto;html=1;exitX=0.5;exitY=0;exitDx=0;exitDy=0;" parent="1" source="WyV3JQxwRowbb4DdgCYI-3" target="sPtuqEH-0CU76L_9MhWu-48" edge="1">
          <mxGeometry relative="1" as="geometry" />
        </mxCell>
        <mxCell id="WyV3JQxwRowbb4DdgCYI-3" value="&lt;b&gt;AGB maps multi-date &lt;br&gt;fine resolution&lt;br&gt;&lt;br&gt;global scale&lt;br&gt;&lt;/b&gt;" style="rounded=1;whiteSpace=wrap;html=1;fillColor=#f5f5f5;strokeColor=#666666;fontColor=#333333;" parent="1" vertex="1">
          <mxGeometry x="605" y="-700" width="130" height="60" as="geometry" />
        </mxCell>
        <mxCell id="WyV3JQxwRowbb4DdgCYI-5" value="gain-loss" style="text;html=1;strokeColor=none;fillColor=none;align=center;verticalAlign=middle;whiteSpace=wrap;rounded=0;" parent="1" vertex="1">
          <mxGeometry x="654" y="-729" width="90" height="20" as="geometry" />
        </mxCell>
        <mxCell id="WyV3JQxwRowbb4DdgCYI-10" style="edgeStyle=orthogonalEdgeStyle;rounded=0;orthogonalLoop=1;jettySize=auto;html=1;exitX=1;exitY=0.5;exitDx=0;exitDy=0;entryX=0;entryY=0.5;entryDx=0;entryDy=0;" parent="1" source="WyV3JQxwRowbb4DdgCYI-7" target="sPtuqEH-0CU76L_9MhWu-11" edge="1">
          <mxGeometry relative="1" as="geometry" />
        </mxCell>
        <mxCell id="WyV3JQxwRowbb4DdgCYI-17" style="edgeStyle=orthogonalEdgeStyle;rounded=0;orthogonalLoop=1;jettySize=auto;html=1;exitX=0;exitY=0.5;exitDx=0;exitDy=0;entryX=1;entryY=0.5;entryDx=0;entryDy=0;" parent="1" source="WyV3JQxwRowbb4DdgCYI-7" target="sPtuqEH-0CU76L_9MhWu-2" edge="1">
          <mxGeometry relative="1" as="geometry" />
        </mxCell>
        <mxCell id="WyV3JQxwRowbb4DdgCYI-7" value="&lt;b&gt;Ecological variables&lt;br&gt;&lt;/b&gt;" style="rounded=1;whiteSpace=wrap;html=1;fillColor=#f5f5f5;strokeColor=#666666;fontColor=#333333;" parent="1" vertex="1">
          <mxGeometry x="320" y="-580" width="65" height="60" as="geometry" />
        </mxCell>
        <mxCell id="WyV3JQxwRowbb4DdgCYI-15" style="edgeStyle=orthogonalEdgeStyle;rounded=0;orthogonalLoop=1;jettySize=auto;html=1;exitX=0.5;exitY=1;exitDx=0;exitDy=0;entryX=0.5;entryY=0;entryDx=0;entryDy=0;" parent="1" source="WyV3JQxwRowbb4DdgCYI-14" target="sPtuqEH-0CU76L_9MhWu-11" edge="1">
          <mxGeometry relative="1" as="geometry" />
        </mxCell>
        <mxCell id="WyV3JQxwRowbb4DdgCYI-14" value="Spatial uncertainty modelling &lt;br&gt;(bias and precision)" style="rounded=0;whiteSpace=wrap;html=1;fillColor=#dae8fc;strokeColor=#6c8ebf;" parent="1" vertex="1">
          <mxGeometry x="400" y="-685" width="130" height="60" as="geometry" />
        </mxCell>
      </root>
    </mxGraphModel>
  </diagram>
</mxfile>
